<?xml version="1.0" encoding="iso-8859-1"?>
<!-- Generator: Adobe Illustrator 17.0.0, SVG Export Plug-In . SVG Version: 6.00 Build 0)  -->
<!DOCTYPE svg PUBLIC "-//W3C//DTD SVG 1.1//EN" "http://www.w3.org/Graphics/SVG/1.1/DTD/svg11.dtd">
<svg version="1.1" id="Layer_1" xmlns="http://www.w3.org/2000/svg" xmlns:xlink="http://www.w3.org/1999/xlink" x="0px" y="0px"
	 width="199.5px" height="137.167px" viewBox="0 0 199.5 137.167" style="enable-background:new 0 0 199.5 137.167;"
	 xml:space="preserve">
<path style="fill:none;stroke:#FFFFFF;stroke-width:5;stroke-linecap:round;stroke-linejoin:round;stroke-miterlimit:10;" d="
	M134.471,92.462v40.788H82.285v-14.92c0,0-14.69,1.507-23.145-6.947c-6.092-6.092-4.41-27.006-4.41-27.006h-7.459
	c0,0-4.478-1.757-2.157-6.398l11.377-24.336c0-27.192,21.539-49.219,48.107-49.219c26.569,0,48.439,22.053,48.439,49.244
	C153.037,69.419,145.24,83.449,134.471,92.462z"/>
<path style="fill:none;stroke:#FFFFFF;stroke-width:5;stroke-linecap:round;stroke-linejoin:round;stroke-miterlimit:10;" d="
	M114.754,29.268c-3.537,0-6.7,1.603-8.801,4.122c-2.103-2.518-5.265-4.122-8.802-4.122c-6.33,0-11.461,5.131-11.461,11.461
	c0,2.674,0.919,5.134,2.455,7.083c0.125,0.205,0.273,0.4,0.449,0.576l15.144,15.116c1.223,1.224,3.208,1.232,4.431,0.008
	l15.145-15.128c0.176-0.176,0.324-0.37,0.448-0.575c1.535-1.95,2.453-4.407,2.453-7.08
	C126.215,34.399,121.083,29.268,114.754,29.268z"/>
</svg>
