<?xml version="1.0" encoding="iso-8859-1"?>
<!-- Generator: Adobe Illustrator 17.0.0, SVG Export Plug-In . SVG Version: 6.00 Build 0)  -->
<!DOCTYPE svg PUBLIC "-//W3C//DTD SVG 1.1//EN" "http://www.w3.org/Graphics/SVG/1.1/DTD/svg11.dtd">
<svg version="1.1" id="Layer_1" xmlns="http://www.w3.org/2000/svg" xmlns:xlink="http://www.w3.org/1999/xlink" x="0px" y="0px"
	 width="80px" height="80px" viewBox="0 0 80 80" style="enable-background:new 0 0 80 80;" xml:space="preserve">
<g>
	
		<ellipse transform="matrix(0.7104 0.7038 -0.7038 0.7104 50.1436 -15.5297)" style="fill:none;stroke:#5D7ABC;stroke-miterlimit:10;" cx="43.944" cy="53.172" rx="12.43" ry="19.818"/>
	<path style="fill:none;stroke:#5D7ABC;stroke-miterlimit:10;" d="M52.561,27.907c4.093-7.437,1.786-16.878-5.458-21.543
		c-7.568-4.873-16.892-1.933-22.526,4.879c-8.154,9.86-10.774,25.351-10.774,25.351c-2.358,11.619,0.393,28.382,13.167,35.41
		l0.002,0c4.053,2.705,8.922,4.286,14.161,4.286c14.105,0,25.541-11.435,25.541-25.541C66.675,40.751,60.928,32.1,52.561,27.907z"/>
	<circle style="fill:none;stroke:#5D7ABC;stroke-miterlimit:10;" cx="38.279" cy="20.993" r="11.616"/>
	<circle style="fill:none;stroke:#5D7ABC;stroke-miterlimit:10;" cx="49.896" cy="46.766" r="6.647"/>
</g>
</svg>
