<?xml version="1.0" encoding="iso-8859-1"?>
<!-- Generator: Adobe Illustrator 17.0.0, SVG Export Plug-In . SVG Version: 6.00 Build 0)  -->
<!DOCTYPE svg PUBLIC "-//W3C//DTD SVG 1.1//EN" "http://www.w3.org/Graphics/SVG/1.1/DTD/svg11.dtd">
<svg version="1.1" id="Layer_1" xmlns="http://www.w3.org/2000/svg" xmlns:xlink="http://www.w3.org/1999/xlink" x="0px" y="0px"
	 width="80px" height="80px" viewBox="0 0 80 80" style="enable-background:new 0 0 80 80;" xml:space="preserve">
<g>
	<path style="fill:none;stroke:#5D7ABC;stroke-linecap:round;stroke-linejoin:round;stroke-miterlimit:10;" d="M34.392,11.716
		c0,0-4.394-3.71-11.738-1.235c-5.803,1.954-8.031,7.413-8.031,7.413S-3.574,23.1,6.159,38.898c0,0-4.796,18.901,14.388,17.773
		c0,0,7.667,7.864,16.007,4.467c0,0,11.43,8.648,18.225-0.928c0,0,7.413,2.471,13.591,12.974c0,0-0.618-8.032-2.78-15.136
		c0,0,6.487-3.172,5.561-11.162c0,0,11.429-4.282,4.633-17.256c0,0,2.472-22.834-21.931-20.529
		C53.852,9.102,41.805,2.141,34.392,11.716z"/>
	<path style="fill:none;stroke:#5D7ABC;stroke-linecap:round;stroke-linejoin:round;stroke-miterlimit:10;" d="M34.392,11.716
		c0,0,0.685,11.524,12.393,17.026"/>
	<path style="fill:none;stroke:#5D7ABC;stroke-linecap:round;stroke-linejoin:round;stroke-miterlimit:10;" d="M38.229,21.689
		c0,0-3.294,7.476-9.219,9.733"/>
	<path style="fill:none;stroke:#5D7ABC;stroke-linecap:round;stroke-linejoin:round;stroke-miterlimit:10;" d="M6.159,38.898
		c0,0,7.758-2.398,13.118,3.385"/>
	<path style="fill:none;stroke:#5D7ABC;stroke-linecap:round;stroke-linejoin:round;stroke-miterlimit:10;" d="M36.554,61.139
		c0,0,2.754-12.931,12.91-13.072"/>
	<path style="fill:none;stroke:#5D7ABC;stroke-linecap:round;stroke-linejoin:round;stroke-miterlimit:10;" d="M75.782,29.631
		c0,0-9.955,3.484-16.303-3.075"/>
</g>
</svg>
