<?xml version="1.0" standalone="no"?>
<!DOCTYPE svg PUBLIC "-//W3C//DTD SVG 20010904//EN"
 "http://www.w3.org/TR/2001/REC-SVG-20010904/DTD/svg10.dtd">
<svg version="1.0" xmlns="http://www.w3.org/2000/svg"
 width="225.000000pt" height="225.000000pt" viewBox="0 0 225.000000 225.000000"
 preserveAspectRatio="xMidYMid meet">
<metadata>
Created by potrace 1.15, written by Peter Selinger 2001-2017
</metadata>
<g transform="translate(0.000000,225.000000) scale(0.100000,-0.100000)"
fill="#000000" stroke="none">
<path d="M1593 2240 c-33 -14 -504 -329 -535 -358 -22 -20 -28 -35 -28 -66 0
-36 21 -72 180 -310 98 -149 190 -276 202 -283 47 -26 114 -6 135 40 6 14 21
76 34 138 12 63 25 118 29 122 4 4 36 -24 72 -62 74 -80 147 -214 175 -321 24
-89 23 -281 -1 -370 -82 -303 -333 -521 -645 -561 -220 -28 -450 51 -612 211
-285 280 -304 730 -45 1027 62 71 71 91 62 138 -9 46 -48 75 -99 75 -36 0 -46
-6 -90 -52 -106 -113 -190 -270 -229 -424 -29 -115 -31 -332 -5 -436 75 -302
283 -552 555 -668 180 -76 411 -96 597 -51 108 26 267 101 351 164 194 147
328 366 369 604 58 333 -78 694 -339 899 -48 37 -74 64 -71 74 20 70 74 386
69 404 -13 52 -82 87 -131 66z"/>
</g>
</svg>
