<?xml version="1.0" encoding="iso-8859-1"?>
<!-- Generator: Adobe Illustrator 17.0.0, SVG Export Plug-In . SVG Version: 6.00 Build 0)  -->
<!DOCTYPE svg PUBLIC "-//W3C//DTD SVG 1.1//EN" "http://www.w3.org/Graphics/SVG/1.1/DTD/svg11.dtd">
<svg version="1.1" id="Layer_1" xmlns="http://www.w3.org/2000/svg" xmlns:xlink="http://www.w3.org/1999/xlink" x="0px" y="0px"
	 width="80px" height="80px" viewBox="0 0 80 80" style="enable-background:new 0 0 80 80;" xml:space="preserve">
<g>
	<path style="fill:none;stroke:#5D7ABC;stroke-miterlimit:10;" d="M13.931,5.601c0,0,0.146,2.054,2.773,1.106
		c2.628-0.948,5.985-2.37,8.321-3.476c2.336-1.106,3.212,0.566,3.212,1.863c0,1.297,0,3.351,1.167,4.614
		c1.168,1.264,2.336,3.318-1.605,4.582c-3.942,1.264-6.277,1.896-6.277,1.896s-2.189-0.316-2.774-1.422
		c-0.584-1.106-2.628-2.845-3.941-1.265c-1.314,1.581-3.796,3.635-4.964,2.687c-1.168-0.949-3.357-5.531,0-6.004
		c0,0,3.358,0.631,3.212-2.845C12.909,3.864,13.931,5.601,13.931,5.601z"/>
	<path style="fill:none;stroke:#5D7ABC;stroke-miterlimit:10;" d="M17.589,18.237c0,0-0.011,2.061,2.68,1.35
		c2.691-0.711,6.146-1.828,8.557-2.72c2.412-0.893,3.158,0.85,3.059,2.143c-0.099,1.291-0.255,3.339,0.811,4.703
		c1.068,1.364,2.075,3.514-1.949,4.422c-4.025,0.908-6.4,1.329-6.4,1.329s-2.158-0.51-2.656-1.664
		c-0.497-1.155-2.401-3.07-3.831-1.613c-1.43,1.457-4.059,3.282-5.152,2.234c-1.092-1.049-2.924-5.811,0.458-5.983
		c0,0,3.298,0.93,3.418-2.547C16.703,16.415,17.589,18.237,17.589,18.237z"/>
	<path style="fill:none;stroke:#5D7ABC;stroke-miterlimit:10;" d="M18.688,28.712c0,0-0.285,2.038,2.472,1.755
		c2.758-0.283,6.325-0.85,8.83-1.356c2.506-0.508,3.012,1.334,2.742,2.598c-0.27,1.263-0.698,3.263,0.176,4.78
		c0.874,1.518,1.585,3.803-2.518,4.073c-4.103,0.27-6.511,0.316-6.511,0.316s-2.067-0.842-2.406-2.063
		c-0.339-1.219-1.968-3.411-3.576-2.193c-1.61,1.218-4.455,2.615-5.395,1.406c-0.941-1.208-2.12-6.207,1.25-5.849
		c0,0,3.14,1.434,3.72-1.988C18.054,26.769,18.688,28.712,18.688,28.712z"/>
	<path style="fill:none;stroke:#5D7ABC;stroke-miterlimit:10;" d="M19.827,39.653c0,0-0.605,1.954,2.156,2.189
		c2.761,0.238,6.366,0.345,8.914,0.312c2.549-0.031,2.754,1.877,2.286,3.071c-0.467,1.195-1.208,3.085-0.588,4.743
		c0.62,1.657,0.955,4.041-3.13,3.541c-4.085-0.5-6.463-0.904-6.463-0.904s-1.902-1.215-2.041-2.48
		c-0.139-1.265-1.395-3.728-3.174-2.828c-1.779,0.9-4.805,1.745-5.538,0.378c-0.734-1.365-1.099-6.51,2.164-5.528
		c0,0,2.864,1.999,3.982-1.264C19.512,37.623,19.827,39.653,19.827,39.653z"/>
	<path style="fill:none;stroke:#5D7ABC;stroke-miterlimit:10;" d="M18.642,51.219c0,0-0.753,1.892,1.98,2.374
		c2.734,0.481,6.318,0.91,8.86,1.105c2.543,0.196,2.601,2.117,2.044,3.266c-0.557,1.148-1.439,2.966-0.947,4.672
		c0.491,1.707,0.643,4.113-3.389,3.25c-4.033-0.862-6.372-1.478-6.372-1.478s-1.803-1.381-1.846-2.653
		c-0.042-1.274-1.106-3.84-2.947-3.102c-1.842,0.738-4.921,1.309-5.548-0.117c-0.628-1.428-0.599-6.585,2.578-5.317
		c0,0,2.701,2.248,4.064-0.903C18.483,49.166,18.642,51.219,18.642,51.219z"/>
	<path style="fill:none;stroke:#5D7ABC;stroke-miterlimit:10;" d="M15.731,61.596c0,0-0.952,1.675,1.569,2.538
		c2.521,0.862,5.852,1.802,8.228,2.365c2.377,0.564,2.188,2.386,1.515,3.388c-0.672,1.001-1.736,2.588-1.489,4.273
		c0.247,1.685,0.085,3.981-3.614,2.565c-3.699-1.416-5.831-2.345-5.831-2.345s-1.528-1.572-1.406-2.782
		c0.123-1.209-0.556-3.791-2.389-3.368c-1.833,0.423-4.814,0.503-5.225-0.938c-0.411-1.441,0.272-6.309,3.111-4.638
		c0,0,2.266,2.526,3.954-0.248C15.842,59.634,15.731,61.596,15.731,61.596z"/>
</g>
</svg>
