<?xml version="1.0" encoding="iso-8859-1"?>
<!-- Generator: Adobe Illustrator 17.0.0, SVG Export Plug-In . SVG Version: 6.00 Build 0)  -->
<!DOCTYPE svg PUBLIC "-//W3C//DTD SVG 1.1//EN" "http://www.w3.org/Graphics/SVG/1.1/DTD/svg11.dtd">
<svg version="1.1" id="Layer_1" xmlns="http://www.w3.org/2000/svg" xmlns:xlink="http://www.w3.org/1999/xlink" x="0px" y="0px"
	 width="80px" height="80px" viewBox="0 0 80 80" style="enable-background:new 0 0 80 80;" xml:space="preserve">
<g>
	<g>
		<circle style="fill:none;stroke:#5D7ABC;stroke-miterlimit:10;" cx="16.815" cy="12.988" r="8.56"/>
		<path style="fill:none;stroke:#5D7ABC;stroke-miterlimit:10;" d="M29.651,43.51v8.67c0,2.579-2.091,4.67-4.67,4.67h-2.704v19.106"
			/>
		<path style="fill:none;stroke:#5D7ABC;stroke-miterlimit:10;" d="M10.734,75.956V56.849H8.649c-2.58,0-4.671-2.091-4.671-4.67
			V30.398c0-2.58,2.091-4.67,4.671-4.67h16.332c2.579,0,4.67,2.091,4.67,4.67v9.958"/>
	</g>
	<g>
		<circle style="fill:none;stroke:#5D7ABC;stroke-miterlimit:10;" cx="63.517" cy="12.988" r="8.56"/>
		<path style="fill:none;stroke:#5D7ABC;stroke-miterlimit:10;" d="M50.681,43.51v8.67c0,2.579,2.091,4.67,4.67,4.67h2.705v19.106"
			/>
		<path style="fill:none;stroke:#5D7ABC;stroke-miterlimit:10;" d="M69.598,75.956V56.849h2.085c2.58,0,4.671-2.091,4.671-4.67
			V30.398c0-2.58-2.091-4.67-4.671-4.67H55.351c-2.579,0-4.67,2.091-4.67,4.67v9.958"/>
	</g>
	<circle style="fill:none;stroke:#5D7ABC;stroke-miterlimit:10;" cx="16.815" cy="40.357" r="3.153"/>
	<line style="fill:none;stroke:#5D7ABC;stroke-miterlimit:10;" x1="19.968" y1="40.357" x2="69.154" y2="40.357"/>
	<polyline style="fill:none;stroke:#5D7ABC;stroke-miterlimit:10;" points="59.423,46.223 69.584,40.357 59.423,34.49 	"/>
</g>
</svg>
