<?xml version="1.0" encoding="iso-8859-1"?>
<!-- Generator: Adobe Illustrator 17.0.0, SVG Export Plug-In . SVG Version: 6.00 Build 0)  -->
<!DOCTYPE svg PUBLIC "-//W3C//DTD SVG 1.1//EN" "http://www.w3.org/Graphics/SVG/1.1/DTD/svg11.dtd">
<svg version="1.1" id="Layer_1" xmlns="http://www.w3.org/2000/svg" xmlns:xlink="http://www.w3.org/1999/xlink" x="0px" y="0px"
	 width="199.5px" height="137.167px" viewBox="0 0 199.5 137.167" style="enable-background:new 0 0 199.5 137.167;"
	 xml:space="preserve">
<g>
	<path style="fill:none;stroke:#FFFFFF;stroke-width:5;stroke-linecap:round;stroke-linejoin:round;stroke-miterlimit:10;" d="
		M142.953,57.898c0.314-0.099,0.633-0.182,1.049-0.301c2.489,7.001,4.801,13.935,5.614,21.249c0.399,3.586-0.643,6.795-2.949,9.647
		c-5.601,6.928-12.172,12.604-20.283,16.438c-7.858,3.716-16.104,5.867-24.776,6.208c-16.696,0.656-31.652-4.021-44.456-14.939
		c-3.307-2.82-6.156-6.081-7.908-10.148c-1.558-3.615-1.784-7.338-0.771-11.125c1.51-5.648,3.058-11.286,4.594-16.927"/>
	<path style="fill:none;stroke:#FFFFFF;stroke-width:5;stroke-linecap:round;stroke-linejoin:round;stroke-miterlimit:10;" d="
		M95.215,34.858c0,0-36.666,1.628-51.744,15.23c0,0-8.66,6.646-14.121,43.302c-1.239,8.316-3.212,15.009-5.523,20.389
		l-11.808,10.844l6.054,5.207l5.754-16.05"/>
	<path style="fill:none;stroke:#FFFFFF;stroke-width:5;stroke-linecap:round;stroke-linejoin:round;stroke-miterlimit:10;" d="
		M193.014,38.059c-0.636-1.873-2.139-2.658-3.893-3.212c-14.253-4.496-28.495-9.023-42.746-13.522
		c-14.727-4.65-29.464-9.269-44.187-13.931c-1.82-0.576-3.546-0.556-5.366,0.019C67.849,16.579,38.869,25.715,9.89,34.86
		c-0.412,0.129-0.823,0.264-1.221,0.429c-1.697,0.706-2.56,1.951-2.541,3.69c0.019,1.743,0.925,2.904,2.522,3.457l82.851,26.195
		c1.91,0.603,3.821,1.202,5.73,1.805c1.548,0.488,3.049,0.538,4.596,0.05c29.201-9.219,58.404-18.434,87.611-27.639
		c1.622-0.511,2.964-1.303,3.578-2.992C193.017,39.256,193.017,38.658,193.014,38.059z"/>
</g>
</svg>
