<?xml version="1.0" encoding="iso-8859-1"?>
<!-- Generator: Adobe Illustrator 17.0.0, SVG Export Plug-In . SVG Version: 6.00 Build 0)  -->
<!DOCTYPE svg PUBLIC "-//W3C//DTD SVG 1.1//EN" "http://www.w3.org/Graphics/SVG/1.1/DTD/svg11.dtd">
<svg version="1.1" id="Layer_1" xmlns="http://www.w3.org/2000/svg" xmlns:xlink="http://www.w3.org/1999/xlink" x="0px" y="0px"
	 width="80px" height="80px" viewBox="0 0 80 80" style="enable-background:new 0 0 80 80;" xml:space="preserve">
<g>
	<path style="fill:none;stroke:#5D7ABC;stroke-linecap:round;stroke-linejoin:round;stroke-miterlimit:10;" d="M75.519,17.112
		c0,0-28.691-0.782-36.515-1.564c-7.824-0.782-27.648-2.086-34.428,9.912c-6.778,11.997-1.305,16.953,1.564,25.299
		c2.87,8.346,5.218,16.17,8.608,16.17c3.391,0,12.78-14.345,18.518-17.735c5.737-3.391,11.737-6.289,14.605-9.404
		c0,0,3.39,3.146,13.822-3.114C72.128,30.415,84.638,17.39,75.519,17.112z"/>
	<path style="fill:none;stroke:#5D7ABC;stroke-linecap:round;stroke-linejoin:round;stroke-miterlimit:10;" d="M47.872,39.789
		c0,0-1.305-8.331-1.826-12.243c-0.521-3.913,0.914-8.347,0.914-8.347"/>
	<path style="fill:none;stroke:#5D7ABC;stroke-linecap:round;stroke-linejoin:round;stroke-miterlimit:10;" d="M42.655,19.199
		c0,0,3.272,3.129,3.276,4.694"/>
</g>
</svg>
