<?xml version="1.0" encoding="iso-8859-1"?>
<!-- Generator: Adobe Illustrator 17.0.0, SVG Export Plug-In . SVG Version: 6.00 Build 0)  -->
<!DOCTYPE svg PUBLIC "-//W3C//DTD SVG 1.1//EN" "http://www.w3.org/Graphics/SVG/1.1/DTD/svg11.dtd">
<svg version="1.1" id="Layer_1" xmlns="http://www.w3.org/2000/svg" xmlns:xlink="http://www.w3.org/1999/xlink" x="0px" y="0px"
	 width="80px" height="80px" viewBox="0 0 80 80" style="enable-background:new 0 0 80 80;" xml:space="preserve">
<g>
	<path style="fill:none;stroke:#FFFFFF;stroke-width:5;stroke-linecap:round;stroke-linejoin:round;stroke-miterlimit:10;" d="
		M55.449,6.618h-38.34c-1.846,0-3.343,1.496-3.343,3.342v60.697c0,1.846,1.497,3.343,3.343,3.343h48.72
		c1.845,0,3.342-1.497,3.342-3.343V20.338L55.449,6.618z"/>
	
		<polyline style="fill:none;stroke:#FFFFFF;stroke-width:5;stroke-linecap:round;stroke-linejoin:round;stroke-miterlimit:10;" points="
		55.449,6.618 55.449,20.338 69.171,20.338 	"/>
	<path style="fill:none;stroke:#FFFFFF;stroke-width:5;stroke-linecap:round;stroke-linejoin:round;stroke-miterlimit:10;" d="
		M43.707,32.461c0,0,7.653-1.11,10.201,1.584c2.181,2.306-1.068,4.46-4.29,1.908c-1.929-1.527-11.611-10.584-11.44-16.99
		c0.156-5.843,5.73-2.351,3.29,3.182c-1.085,2.459-8.17,22.887-12.469,20.39C24.851,40.126,33.029,33.603,43.707,32.461z"/>
	<g>
		<path style="fill:#FFFFFF;" d="M26.628,51.753c0.872-0.148,2.097-0.26,3.822-0.26c1.744,0,2.987,0.334,3.822,1.002
			c0.816,0.631,1.336,1.67,1.336,2.895s-0.39,2.282-1.15,2.969c-0.965,0.891-2.394,1.317-4.063,1.317
			c-0.371,0-0.705-0.019-0.965-0.074v4.49h-2.802V51.753z M29.43,57.431c0.241,0.056,0.52,0.074,0.946,0.074
			c1.503,0,2.431-0.761,2.431-2.022c0-1.15-0.798-1.837-2.227-1.837c-0.557,0-0.946,0.037-1.15,0.093V57.431z"/>
		<path style="fill:#FFFFFF;" d="M37.406,51.771c1.039-0.167,2.393-0.278,3.803-0.278c2.395,0,3.953,0.445,5.141,1.336
			c1.299,0.965,2.115,2.505,2.115,4.713c0,2.394-0.873,4.045-2.061,5.065c-1.316,1.095-3.34,1.614-5.789,1.614
			c-1.465,0-2.523-0.093-3.209-0.186V51.771z M40.227,61.958c0.24,0.056,0.648,0.056,0.982,0.056
			c2.58,0.019,4.268-1.392,4.268-4.379c0-2.598-1.521-3.971-3.971-3.971c-0.611,0-1.039,0.056-1.279,0.111V61.958z"/>
		<path style="fill:#FFFFFF;" d="M50.336,51.586h7.626v2.319h-4.806v2.857h4.49v2.301h-4.49v5.028h-2.82V51.586z"/>
	</g>
</g>
</svg>
