<?xml version="1.0" encoding="iso-8859-1"?>
<!-- Generator: Adobe Illustrator 17.0.0, SVG Export Plug-In . SVG Version: 6.00 Build 0)  -->
<!DOCTYPE svg PUBLIC "-//W3C//DTD SVG 1.1//EN" "http://www.w3.org/Graphics/SVG/1.1/DTD/svg11.dtd">
<svg version="1.1" id="Layer_1" xmlns="http://www.w3.org/2000/svg" xmlns:xlink="http://www.w3.org/1999/xlink" x="0px" y="0px"
	 width="80px" height="80px" viewBox="0 0 80 80" style="enable-background:new 0 0 80 80;" xml:space="preserve">
<g>
	<path style="fill:none;stroke:#5D7ABC;stroke-miterlimit:10;" d="M14.706,31.445c0,0-5.509,6.637-7.879,13.037l4.303,3.319
		l0.077,6.637l2.374,4.029c0,0-2.254,4.741,0,9.007c0,0,7.231,3.082,15.527,0l1.422,9.493h29.629c0,0-3.318-14.707,1.185-22.292
		c4.504-7.585,15.406-22.044,7.821-36.977C61.581,2.764,39.784,0.265,28.397,5.428C17.019,10.586,10.913,23.149,14.706,31.445z"/>
	<g>
		<g>
			<path style="fill:none;stroke:#5D7ABC;stroke-miterlimit:10;" d="M13.938,38.556c0,0,1.092,0.445,2.844,0.945"/>
			<path style="fill:none;stroke:#5D7ABC;stroke-miterlimit:10;stroke-dasharray:5.2626,5.2626;" d="M21.926,40.591
				c2.449,0.336,5.201,0.435,7.863-0.058"/>
			<path style="fill:none;stroke:#5D7ABC;stroke-miterlimit:10;" d="M32.334,39.856c0.936-0.334,1.841-0.761,2.699-1.3
				c0,0,0.307,1.136,0.4,2.967"/>
			<path style="fill:none;stroke:#5D7ABC;stroke-miterlimit:10;stroke-dasharray:5.62,5.62;" d="M34.969,47.106
				c-1.046,4.715-4.073,10.483-11.955,14.863"/>
			<path style="fill:none;stroke:#5D7ABC;stroke-miterlimit:10;" d="M20.504,63.238c-0.875,0.401-1.799,0.787-2.774,1.154"/>
		</g>
	</g>
</g>
</svg>
