<?xml version="1.0" encoding="iso-8859-1"?>
<!-- Generator: Adobe Illustrator 17.0.0, SVG Export Plug-In . SVG Version: 6.00 Build 0)  -->
<!DOCTYPE svg PUBLIC "-//W3C//DTD SVG 1.1//EN" "http://www.w3.org/Graphics/SVG/1.1/DTD/svg11.dtd">
<svg version="1.1" id="Layer_1" xmlns="http://www.w3.org/2000/svg" xmlns:xlink="http://www.w3.org/1999/xlink" x="0px" y="0px"
	 width="60px" height="60px" viewBox="0 0 60 60" style="enable-background:new 0 0 60 60;" xml:space="preserve">
<path style="fill:none;stroke:#FFFFFF;stroke-width:5;stroke-linecap:round;stroke-linejoin:round;stroke-miterlimit:10;" d="
	M39.278,13.051h9.988c1.444,0,2.615,1.171,2.615,2.615v34.651c0,1.444-1.171,2.615-2.615,2.615H23.337
	c-1.444,0-2.615-1.171-2.615-2.615v-3.369"/>
<path style="fill:none;stroke:#FFFFFF;stroke-width:5;stroke-linecap:round;stroke-linejoin:round;stroke-miterlimit:10;" d="
	M39.278,44.334c0,1.444-1.171,2.615-2.615,2.615H10.734c-1.444,0-2.615-1.171-2.615-2.615V9.682c0-1.444,1.171-2.615,2.615-2.615
	h25.929c1.444,0,2.615,1.171,2.615,2.615V44.334z"/>
<polyline style="fill:none;stroke:#FFFFFF;stroke-width:5;stroke-linecap:round;stroke-linejoin:round;stroke-miterlimit:10;" points="
	14.592,26.366 21.666,32.491 31.09,20.025 "/>
</svg>
