<?xml version="1.0" encoding="iso-8859-1"?>
<!-- Generator: Adobe Illustrator 17.0.0, SVG Export Plug-In . SVG Version: 6.00 Build 0)  -->
<!DOCTYPE svg PUBLIC "-//W3C//DTD SVG 1.1//EN" "http://www.w3.org/Graphics/SVG/1.1/DTD/svg11.dtd">
<svg version="1.1" id="Layer_1" xmlns="http://www.w3.org/2000/svg" xmlns:xlink="http://www.w3.org/1999/xlink" x="0px" y="0px"
	 width="90.333px" height="80px" viewBox="0 0 90.333 80" style="enable-background:new 0 0 90.333 80;" xml:space="preserve">
<g>
	<path style="fill:none;stroke:#5D7ABC;stroke-miterlimit:10;" d="M35.711,18.917c0,0,4.926-8.152-3.567-12.059
		c-8.493-3.908-18.006-0.17-24.46,13.928C1.63,34.01-1.213,55.241,14.818,58.325c0,0,20.384,1.36,15.627-21.572
		c0,0,5.436-2.548,3.397-9.852c0,0,3.289,1.869,3.289,11.892v37.857h3.676V30.978C40.807,30.978,42.166,25.373,35.711,18.917z"/>
	<path style="fill:none;stroke:#5D7ABC;stroke-miterlimit:10;" d="M54.289,18.917c0,0-4.926-8.152,3.567-12.059
		c8.493-3.908,18.006-0.17,24.46,13.928c6.054,13.224,8.896,34.455-7.134,37.539c0,0-20.384,1.36-15.627-21.572
		c0,0-5.436-2.548-3.397-9.852c0,0-3.29,1.869-3.29,11.892v37.857h-3.675V30.978C49.193,30.978,47.835,25.373,54.289,18.917z"/>
</g>
</svg>
