<?xml version="1.0" encoding="iso-8859-1"?>
<!-- Generator: Adobe Illustrator 17.0.0, SVG Export Plug-In . SVG Version: 6.00 Build 0)  -->
<!DOCTYPE svg PUBLIC "-//W3C//DTD SVG 1.1//EN" "http://www.w3.org/Graphics/SVG/1.1/DTD/svg11.dtd">
<svg version="1.1" id="Layer_1" xmlns="http://www.w3.org/2000/svg" xmlns:xlink="http://www.w3.org/1999/xlink" x="0px" y="0px"
	 width="80px" height="80px" viewBox="0 0 80 80" style="enable-background:new 0 0 80 80;" xml:space="preserve">
<g>
	<circle style="fill:none;stroke:#5D7ABC;stroke-miterlimit:10;" cx="45.35" cy="8.114" r="2.65"/>
	<circle style="fill:none;stroke:#5D7ABC;stroke-miterlimit:10;" cx="57.556" cy="14.166" r="2.65"/>
	<rect x="43.101" y="27.226" style="fill:none;stroke:#5D7ABC;stroke-miterlimit:10;" width="28.909" height="21.843"/>
	<path style="fill:none;stroke:#5D7ABC;stroke-miterlimit:10;" d="M39.039,37.987v-10.16c0-3.969,3.217-7.185,7.185-7.185h22.664
		c3.968,0,7.185,3.216,7.185,7.185v10.16"/>
	<line style="fill:none;stroke:#5D7ABC;stroke-miterlimit:10;" x1="36.517" y1="37.987" x2="43.101" y2="37.987"/>
	<line style="fill:none;stroke:#5D7ABC;stroke-miterlimit:10;" x1="72.011" y1="37.987" x2="78.596" y2="37.987"/>
	<line style="fill:none;stroke:#5D7ABC;stroke-miterlimit:10;" x1="57.557" y1="16.815" x2="57.557" y2="20.641"/>
	<line style="fill:none;stroke:#5D7ABC;stroke-miterlimit:10;" x1="47.718" y1="9.298" x2="55.168" y2="13.024"/>
	<line style="fill:none;stroke:#5D7ABC;stroke-miterlimit:10;" x1="6.804" y1="8.114" x2="42.7" y2="8.114"/>
	<line style="fill:none;stroke:#5D7ABC;stroke-miterlimit:10;" x1="1.651" y1="18.159" x2="14.031" y2="18.159"/>
	<line style="fill:none;stroke:#5D7ABC;stroke-miterlimit:10;" x1="2.666" y1="21.203" x2="13.016" y2="21.203"/>
	<rect x="4.036" y="24.654" style="fill:none;stroke:#5D7ABC;stroke-miterlimit:10;" width="7.61" height="10.452"/>
	<path style="fill:none;stroke:#5D7ABC;stroke-miterlimit:10;" d="M5.203,35.106v4.792c0,1.179,0.955,2.134,2.135,2.134h1.007
		c1.18,0,2.134-0.955,2.134-2.134v-4.792H5.203z"/>
	<line style="fill:none;stroke:#5D7ABC;stroke-miterlimit:10;" x1="7.841" y1="42.032" x2="7.841" y2="72.347"/>
	<path style="fill:none;stroke:#5D7ABC;stroke-miterlimit:10;" d="M16.193,28.365c2.882-1.473,6.317-3.016,7.681-2.798
		c2.537,0.406,7.408,1.319,7.408,8.625v27.804c0,0,1.015,13.294,12.888,13.294c11.872,0,13.387-12.684,13.387-12.684V51.139"/>
	<path style="fill:none;stroke:#5D7ABC;stroke-miterlimit:10;" d="M11.646,30.844c0,0,1.7-0.997,3.862-2.125"/>
	<circle style="fill:none;stroke:#5D7ABC;stroke-miterlimit:10;" cx="57.766" cy="38.151" r="6.697"/>
	<line style="fill:none;stroke:#5D7ABC;stroke-miterlimit:10;" x1="57.557" y1="34.497" x2="57.557" y2="41.194"/>
	<line style="fill:none;stroke:#5D7ABC;stroke-miterlimit:10;" x1="54.208" y1="37.845" x2="60.905" y2="37.845"/>
</g>
</svg>
